<?xml version="1.0" encoding="utf-8"?>
<!-- Generator: Adobe Illustrator 16.0.3, SVG Export Plug-In . SVG Version: 6.00 Build 0)  -->
<!DOCTYPE svg PUBLIC "-//W3C//DTD SVG 1.1//EN" "http://www.w3.org/Graphics/SVG/1.1/DTD/svg11.dtd">
<svg version="1.1" id="Layer_1" xmlns="http://www.w3.org/2000/svg" xmlns:xlink="http://www.w3.org/1999/xlink" x="0px" y="0px"
	 width="260px" height="60px" viewBox="0 0 260 60" enable-background="new 0 0 260 60" xml:space="preserve">
<path fill-rule="evenodd" clip-rule="evenodd" fill="#A96718" d="M19.672,37.1c-2.741,0-5.338-0.623-7.652-1.736
	c1.291,0.332,2.638,0.529,4.034,0.529c8.853,0,16.055-7.129,16.055-15.895c0-8.762-7.202-15.893-16.055-15.893
	c-2.404,0-4.678,0.541-6.729,1.482c2.906-2.1,6.482-3.342,10.347-3.342c9.707,0,17.605,7.816,17.605,17.428
	C37.277,29.283,29.379,37.1,19.672,37.1L19.672,37.1z M12.216,31.986c-1.554,0-3.036-0.301-4.405-0.828
	c2.316,1.682,5.159,2.686,8.242,2.686c7.71,0,13.985-6.211,13.985-13.846c0-7.633-6.275-13.844-13.985-13.844
	c-2.795,0-5.395,0.824-7.582,2.229c1.182-0.379,2.438-0.588,3.745-0.588c6.737,0,12.216,5.426,12.216,12.096
	C24.433,26.559,18.954,31.986,12.216,31.986L12.216,31.986z M5.438,27.346c1.799,1.604,4.171,2.59,6.778,2.59
	c5.595,0,10.147-4.508,10.147-10.045c0-5.539-4.553-10.045-10.147-10.045c-3.079,0-5.837,1.369-7.699,3.52
	c1.24-0.773,2.702-1.227,4.273-1.227c4.438,0,8.049,3.574,8.049,7.969c0,4.396-3.611,7.969-8.049,7.969
	C7.592,28.076,6.459,27.811,5.438,27.346L5.438,27.346z M19.672,0C8.825,0,0,8.824,0,19.674c0,0.047,0.003,0.098,0.003,0.146
	C0.003,19.844,0,19.869,0,19.893c0,0.02,0.003,0.037,0.003,0.053C0.003,19.967,0,19.982,0,20.002c0,0.111,0.013,0.219,0.015,0.33
	c0.009,0.234,0.021,0.469,0.036,0.699c0.026,0.383,0.062,0.764,0.112,1.139c0.043,0.33,0.092,0.656,0.15,0.982
	c0.007,0.035,0.012,0.072,0.019,0.109c1.693,9.141,9.717,16.084,19.34,16.084c10.849,0,19.673-8.824,19.673-19.672
	C39.346,8.824,30.521,0,19.672,0z"/>
<g>
	<path fill-rule="evenodd" clip-rule="evenodd" d="M66.434,9.9v3.977h-1.7V24.01c0,5.742-3.624,8.02-8.788,8.02
		c-5.162,0-8.786-2.277-8.786-8.02V13.877h-1.732V9.9h8.563v3.977h-1.732V24.01c0,2.277,0.834,4.041,3.719,4.041
		c2.791,0,3.658-1.764,3.658-4.041V13.877h-1.732V9.9H66.434z"/>
	<path fill-rule="evenodd" clip-rule="evenodd" d="M79.613,9.9l5.517,17.83h1.73v3.977h-9.074V27.73h1.795l-0.706-2.629h-5.869
		l-0.833,2.629h1.859v3.977h-8.82V27.73h2.022l4.392-13.854h-2.084V9.9H79.613L79.613,9.9z M76.086,14.422l-2.053,6.99h3.978
		l-1.892-6.99H76.086z"/>
	<polygon fill-rule="evenodd" clip-rule="evenodd" points="87.664,9.26 94.206,9.26 94.206,27.73 95.937,27.73 95.937,31.707 
		87.664,31.707 87.664,27.73 89.395,27.73 89.395,13.236 87.664,13.236 	"/>
	<path fill-rule="evenodd" clip-rule="evenodd" d="M98.535,31.098c-2.052-1.379-1.7-4.201,1.314-5.74v-0.063
		c-1.604-0.803-2.597-2.533-2.597-4.492c0-3.75,2.79-5.449,6.926-5.449c0.834,0,1.731,0.127,2.374,0.318h6.093v2.855h-2.31v0.063
		c0.417,0.514,0.61,1.221,0.61,2.213c0,3.787-2.854,5.42-6.767,5.42c-0.513,0-1.25-0.094-1.892-0.287
		c-0.673,0.994-0.642,1.795,0.385,1.859l5.131,0.225c3.239,0.127,5.164,1.732,5.164,4.459c0,4.135-3.111,5.963-9.749,5.963
		c-4.939,0-7.055-1.346-7.055-4.17c0-1.377,0.705-2.309,2.373-3.109V31.098L98.535,31.098z M103.955,35.172
		c1.924,0,3.943-0.416,3.943-1.764c0-0.674-0.545-1.188-1.635-1.283l-5.291-0.322c-0.385,0.482-0.706,0.771-0.706,1.637
		C100.267,35.045,102.19,35.172,103.955,35.172L103.955,35.172z M106.393,20.803c0-1.635-0.963-2.18-2.214-2.18
		c-1.313,0-2.245,0.545-2.245,2.18c0,1.637,0.962,2.15,2.245,2.15C105.429,22.953,106.393,22.406,106.393,20.803z"/>
</g>
<g>
	<path d="M47.176,58.688v-5.302h0.741v5.302H47.176z"/>
	<path d="M48.931,58.688v-5.302h0.741l2.573,3.938h0.016v-3.938h0.725v5.302h-0.741l-2.581-3.852h-0.016v3.852H48.931z"/>
	<path d="M53.736,58.493l0.125-0.624c0.811,0.195,1.356,0.234,1.786,0.234c0.78,0,1.13-0.405,1.13-0.834
		c0-0.647-0.756-0.803-1.326-0.959c-0.865-0.227-1.637-0.702-1.637-1.599c0-1.006,0.819-1.403,1.833-1.403
		c0.584,0,1.13,0.078,1.793,0.272l-0.171,0.624c-0.803-0.195-1.193-0.234-1.622-0.234c-0.78,0-1.053,0.351-1.053,0.764
		c0,0.6,0.772,0.811,1.364,0.951c0.858,0.195,1.599,0.608,1.599,1.521c0,1.053-0.819,1.56-1.91,1.56
		C55.062,58.766,54.399,58.688,53.736,58.493z"/>
	<path d="M60.303,54.049v4.639h-0.741v-4.639h-1.458v-0.663h3.665v0.663H60.303z"/>
	<path d="M62.628,58.688v-5.302h0.741v5.302H62.628z"/>
	<path d="M66.426,54.049v4.639h-0.741v-4.639h-1.458v-0.663h3.665v0.663H66.426z"/>
	<path d="M71.987,56.817v-3.431h0.741v3.431c0,1.364-0.725,1.949-1.988,1.949c-1.271,0-1.988-0.585-1.988-1.949v-3.431h0.741v3.431
		c0,0.584,0.117,1.325,1.263,1.325C71.847,58.142,71.987,57.401,71.987,56.817z"/>
	<path d="M75.786,54.049v4.639h-0.741v-4.639h-1.458v-0.663h3.665v0.663H75.786z"/>
	<path d="M77.752,55.998c0-1.481,0.444-2.69,2.261-2.69c1.809,0,2.261,1.208,2.261,2.69c0,1.505-0.452,2.768-2.261,2.768
		C78.197,58.766,77.752,57.503,77.752,55.998z M78.532,55.998c0,1.13,0.21,2.144,1.481,2.144c1.263,0,1.481-1.014,1.481-2.144
		c0-1.131-0.218-2.066-1.481-2.066C78.743,53.932,78.532,54.867,78.532,55.998z"/>
	<path d="M84.538,58.493l0.125-0.624c0.811,0.195,1.356,0.234,1.786,0.234c0.779,0,1.13-0.405,1.13-0.834
		c0-0.647-0.756-0.803-1.326-0.959c-0.865-0.227-1.637-0.702-1.637-1.599c0-1.006,0.819-1.403,1.833-1.403
		c0.584,0,1.13,0.078,1.793,0.272l-0.171,0.624c-0.803-0.195-1.193-0.234-1.622-0.234c-0.78,0-1.053,0.351-1.053,0.764
		c0,0.6,0.772,0.811,1.364,0.951c0.858,0.195,1.599,0.608,1.599,1.521c0,1.053-0.819,1.56-1.91,1.56
		C85.864,58.766,85.201,58.688,84.538,58.493z"/>
	<path d="M92.532,56.817v-3.431h0.741v3.431c0,1.364-0.725,1.949-1.988,1.949c-1.271,0-1.988-0.585-1.988-1.949v-3.431h0.741v3.431
		c0,0.584,0.117,1.325,1.263,1.325C92.392,58.142,92.532,57.401,92.532,56.817z"/>
	<path d="M95.029,56.583v2.105h-0.741v-5.302h2.183c1.053,0,1.638,0.663,1.638,1.599c0,0.975-0.585,1.598-1.638,1.598H95.029z
		 M95.029,55.92h1.365c0.584,0,0.951-0.289,0.951-0.936c0-0.601-0.367-0.936-0.951-0.936h-1.365V55.92z"/>
	<path d="M102.359,54.049h-2.651v1.559h2.3v0.663h-2.3v1.754h2.69v0.663h-3.431v-5.302h3.392V54.049z"/>
	<path d="M106.462,58.688l-1.255-2.066h-1.13v2.066h-0.741v-5.302h2.183c1.053,0,1.638,0.686,1.638,1.622
		c0,0.749-0.406,1.349-1.178,1.497l1.349,2.183H106.462z M104.077,55.959h1.326c0.584,0,0.99-0.312,0.99-0.951
		c0-0.608-0.367-0.959-0.951-0.959h-1.365V55.959z"/>
	<path d="M108.133,58.688v-5.302h0.741v5.302H108.133z"/>
	<path d="M109.716,55.998c0-1.481,0.445-2.69,2.261-2.69c1.809,0,2.261,1.208,2.261,2.69c0,1.505-0.452,2.768-2.261,2.768
		C110.161,58.766,109.716,57.503,109.716,55.998z M110.496,55.998c0,1.13,0.21,2.144,1.481,2.144c1.263,0,1.481-1.014,1.481-2.144
		c0-1.131-0.218-2.066-1.481-2.066C110.706,53.932,110.496,54.867,110.496,55.998z"/>
	<path d="M118.209,58.688l-1.255-2.066h-1.13v2.066h-0.741v-5.302h2.183c1.053,0,1.638,0.686,1.638,1.622
		c0,0.749-0.406,1.349-1.178,1.497l1.349,2.183H118.209z M115.823,55.959h1.326c0.584,0,0.99-0.312,0.99-0.951
		c0-0.608-0.367-0.959-0.951-0.959h-1.365V55.959z"/>
	<path d="M121.283,58.688v-5.302h1.887c1.739,0,2.246,1.131,2.246,2.612c0,1.505-0.507,2.69-2.246,2.69H121.283z M123.17,58.025
		c1.193,0,1.466-0.897,1.466-2.027c0-1.131-0.273-1.949-1.466-1.949h-1.146v3.977H123.17z"/>
	<path d="M129.651,54.049H127v1.559h2.3v0.663H127v1.754h2.69v0.663h-3.431v-5.302h3.392V54.049z"/>
	<path d="M135.423,54.049h-2.651v1.559h2.3v0.663h-2.3v1.754h2.69v0.663h-3.431v-5.302h3.392V54.049z"/>
	<path d="M136.399,58.688v-5.302h0.741l2.573,3.938h0.016v-3.938h0.725v5.302h-0.741l-2.581-3.852h-0.016v3.852H136.399z"/>
	<path d="M141.297,55.998c0-1.481,0.444-2.69,2.261-2.69c0.601,0,1.131,0.078,1.793,0.272l-0.171,0.624
		c-0.803-0.195-1.139-0.234-1.567-0.234c-1.224,0-1.536,0.896-1.536,2.027c0,1.208,0.312,2.105,1.536,2.105
		c0.39,0,0.709-0.101,0.998-0.257v-1.224h-1.014v-0.663h1.754v2.386c-0.538,0.226-1.045,0.421-1.793,0.421
		C141.742,58.766,141.297,57.519,141.297,55.998z"/>
	<path d="M149.759,54.049h-2.651v1.559h2.3v0.663h-2.3v1.754h2.69v0.663h-3.431v-5.302h3.392V54.049z"/>
	<path d="M150.736,58.688v-5.302h0.741l2.573,3.938h0.016v-3.938h0.725v5.302h-0.741l-2.581-3.852h-0.016v3.852H150.736z"/>
	<path d="M155.806,58.688v-5.302h0.741v2.222h2.495v-2.222h0.741v5.302h-0.741v-2.417h-2.495v2.417H155.806z"/>
	<path d="M163.699,57.347h-2.027l-0.452,1.341h-0.78l1.825-5.341h0.912l1.786,5.341h-0.827L163.699,57.347z M162.693,54.275
		l-0.866,2.448h1.715l-0.834-2.448H162.693z"/>
	<path d="M168.745,58.688l-1.255-2.066h-1.13v2.066h-0.741v-5.302h2.183c1.053,0,1.638,0.686,1.638,1.622
		c0,0.749-0.406,1.349-1.178,1.497l1.349,2.183H168.745z M166.359,55.959h1.326c0.584,0,0.99-0.312,0.99-0.951
		c0-0.608-0.367-0.959-0.951-0.959h-1.365V55.959z"/>
	<path d="M170.416,58.688v-5.302h0.741v5.302H170.416z"/>
	<path d="M175.071,57.347h-2.027l-0.452,1.341h-0.78l1.825-5.341h0.912l1.786,5.341h-0.827L175.071,57.347z M174.065,54.275
		l-0.866,2.448h1.715l-0.834-2.448H174.065z"/>
</g>
<g>
	<path d="M52.749,42.483v0.724h-0.628v3.526c0,1.69-0.898,2.415-2.463,2.415c-1.575,0-2.463-0.725-2.463-2.415v-3.526h-0.627v-0.724
		h2.173v0.724h-0.627v3.526c0,0.724,0.145,1.69,1.564,1.69c1.353,0,1.526-0.966,1.526-1.69v-3.526h-0.628v-0.724H52.749z"/>
	<path d="M59.411,42.483v0.724h-0.627v5.844h-0.947l-3.216-4.897h-0.02v4.172h0.657v0.725h-2.125v-0.725h0.627v-5.119h-0.627v-0.724
		h1.516l3.265,5.022h0.02v-4.298h-0.647v-0.724H59.411z"/>
	<path d="M60.424,48.326v-5.119h-0.627v-0.724h2.173v0.724h-0.627v5.119h0.627v0.725h-2.173v-0.725H60.424z"/>
	<path d="M68.633,42.483v0.724h-0.512l-2.019,5.892h-1.179l-2.086-5.892h-0.483v-0.724h2.366v0.724h-0.869l1.709,4.945h0.01
		l1.613-4.945h-0.869v-0.724H68.633z"/>
	<path d="M73.896,42.483v1.4h-0.724v-0.676h-2.608v2.077h2.849v0.725h-2.849v2.318h2.608V47.65h0.724v1.4h-4.877v-0.725h0.627
		v-5.119h-0.627v-0.724H73.896z"/>
	<path d="M77.855,42.483c1.304,0,2.028,0.802,2.028,1.96c0,0.927-0.521,1.652-1.41,1.806l1.468,2.077h0.473v0.725h-2.27v-0.725
		h0.637l-1.313-1.932h-1.4v1.932h0.627v0.725h-2.173v-0.725h0.627v-5.119h-0.627v-0.724H77.855z M76.068,45.67h1.642
		c0.725,0,1.227-0.435,1.227-1.227c0-0.753-0.454-1.236-1.179-1.236h-1.69V45.67z"/>
	<path d="M81.766,47.409v0.753c0.715,0.164,1.198,0.212,1.642,0.212c1.014,0,1.4-0.531,1.4-1.063c0-0.792-0.937-1.014-1.642-1.207
		c-1.072-0.28-2.077-0.87-2.077-1.98c0-1.246,1.014-1.739,2.27-1.739c0.724,0,1.4,0.097,2.221,0.338v1.401h-0.724v-0.783
		c-0.676-0.145-1.072-0.184-1.497-0.184c-0.966,0-1.304,0.435-1.304,0.947c0,0.744,0.957,1.053,1.69,1.227
		c1.063,0.242,2.028,0.753,2.028,1.884c0,1.304-1.014,1.932-2.366,1.932c-0.725,0-1.545-0.097-2.367-0.338v-1.4H81.766z"/>
	<path d="M87.028,48.326v-5.119H86.4v-0.724h2.173v0.724h-0.627v5.119h0.627v0.725H86.4v-0.725H87.028z"/>
	<path d="M91.924,42.483c2.154,0,2.782,1.4,2.782,3.235c0,1.864-0.627,3.333-2.782,3.333h-2.965v-0.725h0.627v-5.119h-0.627v-0.724
		H91.924z M91.924,48.326c1.478,0,1.816-1.207,1.816-2.608c0-1.4-0.338-2.511-1.816-2.511h-1.419v5.119H91.924z"/>
	<path d="M98.674,42.483l1.97,5.843h0.531v0.725h-2.27v-0.725h0.744l-0.425-1.275h-2.463l-0.454,1.275h0.714v0.725h-2.221v-0.725
		h0.608l1.806-5.119h-0.705v-0.724H98.674z M98.027,43.304l-1.072,3.072h2.105l-1.024-3.072H98.027z"/>
	<path d="M104.526,42.483c2.154,0,2.782,1.4,2.782,3.235c0,1.864-0.627,3.333-2.782,3.333h-2.965v-0.725h0.627v-5.119h-0.627v-0.724
		H104.526z M104.526,48.326c1.478,0,1.816-1.207,1.816-2.608c0-1.4-0.338-2.511-1.816-2.511h-1.419v5.119H104.526z"/>
	<path d="M112.667,42.483v1.4h-0.724v-0.676h-2.608v2.077h2.849v0.725h-2.849v2.318h2.608V47.65h0.724v1.4h-4.877v-0.725h0.627
		v-5.119h-0.627v-0.724H112.667z"/>
	<path d="M117.997,42.483c2.154,0,2.782,1.4,2.782,3.235c0,1.864-0.627,3.333-2.782,3.333h-2.965v-0.725h0.627v-5.119h-0.627v-0.724
		H117.997z M117.997,48.326c1.478,0,1.816-1.207,1.816-2.608c0-1.4-0.338-2.511-1.816-2.511h-1.419v5.119H117.997z"/>
	<path d="M121.646,45.718c0-1.835,0.551-3.332,2.801-3.332c2.241,0,2.801,1.497,2.801,3.332c0,1.864-0.56,3.429-2.801,3.429
		C122.197,49.147,121.646,47.583,121.646,45.718z M122.612,45.718c0,1.401,0.261,2.705,1.835,2.705c1.564,0,1.835-1.304,1.835-2.705
		c0-1.4-0.271-2.607-1.835-2.607C122.873,43.111,122.612,44.318,122.612,45.718z"/>
	<path d="M133.486,42.483l1.97,5.843h0.531v0.725h-2.27v-0.725h0.744l-0.425-1.275h-2.463l-0.454,1.275h0.714v0.725h-2.221v-0.725
		h0.608l1.806-5.119h-0.705v-0.724H133.486z M132.839,43.304l-1.072,3.072h2.105l-1.024-3.072H132.839z"/>
	<path d="M141.202,47.65v1.4h-4.829v-0.725H137v-5.119h-0.627v-0.724h2.173v0.724h-0.627v5.119h2.56V47.65H141.202z"/>
	<path d="M144.504,48.375c0.483,0,0.927-0.125,1.285-0.318v-1.565h-1.255v-0.725h2.173v2.859c-0.667,0.28-1.342,0.521-2.27,0.521
		c-2.154,0-2.801-1.565-2.801-3.429c0-1.835,0.551-3.332,2.801-3.332c0.744,0,1.449,0.097,2.27,0.338v1.353h-0.724v-0.783
		c-0.657-0.145-1.043-0.183-1.478-0.183c-1.516,0-1.903,1.207-1.903,2.607C142.601,47.167,143.084,48.375,144.504,48.375z"/>
	<path d="M151.254,42.483l1.97,5.843h0.531v0.725h-2.27v-0.725h0.744l-0.425-1.275h-2.463l-0.454,1.275h0.715v0.725h-2.221v-0.725
		h0.608l1.806-5.119h-0.705v-0.724H151.254z M150.607,43.304l-1.072,3.072h2.105l-1.024-3.072H150.607z"/>
	<path d="M157.473,42.483c1.304,0,2.028,0.802,2.028,1.96c0,0.927-0.521,1.652-1.41,1.806l1.468,2.077h0.473v0.725h-2.27v-0.725
		h0.637l-1.313-1.932h-1.4v1.932h0.627v0.725h-2.173v-0.725h0.627v-5.119h-0.627v-0.724H157.473z M155.686,45.67h1.642
		c0.725,0,1.227-0.435,1.227-1.227c0-0.753-0.454-1.236-1.179-1.236h-1.69V45.67z"/>
	<path d="M166.019,42.483v0.724h-0.512l-2.019,5.892h-1.179l-2.086-5.892h-0.483v-0.724h2.366v0.724h-0.869l1.709,4.945h0.01
		l1.613-4.945h-0.869v-0.724H166.019z"/>
	<path d="M171.282,42.483v1.4h-0.724v-0.676h-2.608v2.077h2.849v0.725h-2.849v2.318h2.608V47.65h0.724v1.4h-4.877v-0.725h0.627
		v-5.119h-0.627v-0.724H171.282z"/>
</g>
<g>
	<path fill="#A96718" d="M118.219,29.259V15.656h2.761v13.603H118.219z"/>
	<path fill="#A96718" d="M122.499,28.719l0.48-2.301c2.121,0.5,3.621,0.601,4.681,0.601c1.4,0,2.24-0.641,2.24-1.541
		c0-1.26-1.56-1.521-3.141-1.96c-2.36-0.66-4.061-1.96-4.061-4.261c0-2.741,2.261-3.801,4.961-3.801c1.54,0,2.94,0.2,4.801,0.76
		l-0.62,2.301c-2.141-0.5-3.141-0.6-4.181-0.6c-1.4,0-2.061,0.6-2.061,1.42c0,1.12,1.46,1.48,3.101,1.88
		c2.36,0.54,4.101,1.66,4.101,4.041c0,2.901-2.241,4.201-5.141,4.201C126.1,29.459,124.359,29.259,122.499,28.719z"/>
	<path fill="#A96718" d="M143.541,18.117H137.1v2.901h5.541v2.44H137.1v3.361h6.542v2.44h-9.302V15.656h9.202V18.117z"/>
</g>
</svg>
